<?xml version="1.0" encoding="utf-8"?>
<!-- Generator: Adobe Illustrator 24.3.0, SVG Export Plug-In . SVG Version: 6.00 Build 0)  -->
<svg version="1.1" xmlns="http://www.w3.org/2000/svg" xmlns:xlink="http://www.w3.org/1999/xlink" x="0px" y="0px"
	 viewBox="0 0 1200 1200" style="enable-background:new 0 0 1200 1200;" xml:space="preserve">
<style type="text/css">
	.st0{fill:#FFFFFF;}
	.st1{fill:#0035AD;}
</style>
<g id="square">
	<path class="st0" d="M1080,1200l-960,0c-66.3,0-120-53.7-120-120l0-960C0,53.7,53.7,0,120,0l960,0c66.3,0,120,53.7,120,120l0,960
		C1200,1146.3,1146.3,1200,1080,1200z"/>
</g>
<g id="e">
	<g>
		<path class="st1" d="M420,641.1c10.6,100.6,95.3,158.8,195.9,158.8c116.5,0,185.3-68.8,185.3-68.8l142.9,201.2
			c0,0-111.2,111.2-333.5,111.2c-254.1,0-460.6-180-460.6-444.7S351.2,154,605.3,154c259.4,0,444.7,169.4,444.7,434.1v58.2H420
			V641.1z M790.6,551.1c-5.3-100.6-79.4-174.7-185.3-174.7s-180,74.1-190.6,174.7H790.6L790.6,551.1z"/>
	</g>
</g>
</svg>
